<svg width="64" height="64" viewBox="0 0 64 64" fill="none" xmlns="http://www.w3.org/2000/svg">
  <rect width="64" height="64" rx="16" fill="#625245"/>
  <g transform="translate(16.7 14.7) scale(1.334)">
    <path fill-rule="evenodd" clip-rule="evenodd" d="M17.5361 3.36012C17.6428 3.37475 17.7435 3.41839 17.8271 3.4861C17.917 3.56039 17.9891 3.65372 18.0381 3.75954C18.087 3.86533 18.1119 3.98089 18.1104 4.09743V5.73512L16.8008 5.17458L8.01465 8.97926C7.95865 9.00193 7.90981 9.02274 7.86914 9.04274C8.01587 9.14593 8.1735 9.233 8.33887 9.30251C8.88181 9.54048 9.66114 9.71562 10.4141 9.71266C10.954 9.71266 11.4804 9.62612 11.9004 9.44313L21.5605 5.25954C21.6597 5.2177 21.7684 5.20301 21.875 5.21755C21.9817 5.23213 22.0827 5.27561 22.167 5.34255C22.2569 5.41689 22.329 5.51104 22.3779 5.61696C22.4269 5.72286 22.4518 5.83819 22.4502 5.95485V20.7322C22.4501 21.041 22.2832 21.3136 22.0283 21.4236L12.3652 25.6082C11.7453 25.8741 11.075 25.9734 10.415 25.9734C9.02119 25.9534 7.7116 25.5685 6.93164 24.8806C6.68364 24.6486 6.42332 24.3204 6.40332 23.8054H6.40137V23.7898L6.39844 23.78L6.40039 23.7595V9.03005C6.40039 9.03005 6.39746 9.0127 6.39746 9.0027C6.40065 8.65161 6.54236 8.316 6.79199 8.06911C7.00799 7.85411 7.2645 7.70571 7.5625 7.58571L17.2227 3.40309C17.3214 3.36052 17.4296 3.34556 17.5361 3.36012ZM11.1387 0.00563182C11.2453 0.0202395 11.3464 0.0627554 11.4307 0.129655C11.5206 0.203771 11.5925 0.297417 11.6416 0.403093C11.6908 0.509016 11.7154 0.625197 11.7139 0.74196V2.37673L10.4043 1.81716L1.61719 5.62087C1.56128 5.6435 1.51328 5.66535 1.47266 5.68532C1.61949 5.78778 1.77709 5.8743 1.94238 5.94313C2.48538 6.18209 3.26466 6.35724 4.01758 6.35524C4.55636 6.35521 5.08305 6.26662 5.50293 6.08473L15.1631 1.90407C15.2624 1.86209 15.3717 1.84747 15.4785 1.86208C15.5852 1.87672 15.6862 1.92005 15.7705 1.98708C15.9323 2.11308 16.023 2.32289 16.04 2.54274L7.09766 6.41676C6.65385 6.58543 6.24849 6.84255 5.90723 7.17262C5.41523 7.65662 5.13551 8.32907 5.14551 9.02907V22.4978C4.77502 22.5765 4.3973 22.6174 4.01855 22.6199C2.62359 22.5999 1.31321 22.2161 0.533203 21.5281C0.285209 21.2961 0.0248944 20.9679 0.00488281 20.4529H0.00292969V5.67555C0.00250253 5.67319 5.45333e-05 5.65912 0 5.64821C0.00288511 5.29707 0.145049 4.96075 0.394531 4.71364C0.611402 4.49784 0.866306 4.35115 1.16406 4.23122L10.8242 0.0466474C10.9234 0.00486637 11.0321 -0.00897088 11.1387 0.00563182Z" fill="white"/>
  </g>
</svg>
